<svg width="26" height="25" viewBox="0 0 26 25" fill="none" xmlns="http://www.w3.org/2000/svg">
<path d="M11.3561 1.78228C12.0004 0.900502 13.3164 0.900502 13.9607 1.78228L15.778 4.2694C16.0959 4.70443 16.61 4.95201 17.1483 4.92929L20.2259 4.79944C21.317 4.7534 22.1375 5.78227 21.8498 6.83578L21.0384 9.80731C20.8964 10.3271 21.0234 10.8834 21.3768 11.2901L23.3972 13.6153C24.1135 14.4396 23.8206 15.7226 22.8176 16.1546L19.9885 17.3729C19.4936 17.586 19.1378 18.0321 19.0402 18.562L18.482 21.5913C18.284 22.6653 17.0984 23.2363 16.1353 22.7214L13.4188 21.2691C12.9437 21.015 12.3731 21.015 11.8979 21.2691L9.18147 22.7214C8.21838 23.2363 7.03273 22.6653 6.83482 21.5913L6.27659 18.562C6.17895 18.0321 5.82318 17.586 5.32832 17.3729L2.49916 16.1546C1.49613 15.7226 1.2033 14.4396 1.91959 13.6153L3.93996 11.2901C4.29335 10.8834 4.42033 10.3271 4.2784 9.80731L3.46697 6.83578C3.17928 5.78227 3.99978 4.7534 5.0909 4.79944L8.16849 4.92929C8.7068 4.95201 9.2209 4.70443 9.53878 4.2694L11.3561 1.78228Z" fill="black"/>
<g clip-path="url(#clip0_1_600)">
<path d="M16.2368 8.9209L9.88597 15.2717" stroke="white" stroke-width="0.705645" stroke-linecap="round" stroke-linejoin="round"/>
<path d="M10.768 11.0379C11.45 11.0379 12.0029 10.485 12.0029 9.80299C12.0029 9.12099 11.45 8.56812 10.768 8.56812C10.086 8.56812 9.53314 9.12099 9.53314 9.80299C9.53314 10.485 10.086 11.0379 10.768 11.0379Z" stroke="white" stroke-width="0.705645" stroke-linecap="round" stroke-linejoin="round"/>
<path d="M15.3547 15.6245C16.0367 15.6245 16.5896 15.0717 16.5896 14.3897C16.5896 13.7077 16.0367 13.1548 15.3547 13.1548C14.6727 13.1548 14.1198 13.7077 14.1198 14.3897C14.1198 15.0717 14.6727 15.6245 15.3547 15.6245Z" stroke="white" stroke-width="0.705645" stroke-linecap="round" stroke-linejoin="round"/>
</g>
<defs>
<clipPath id="clip0_1_600">
<rect width="11.2903" height="11.2903" fill="white" transform="translate(7.4162 6.45117)"/>
</clipPath>
</defs>
</svg>
